<svg width="41" height="37" viewBox="0 0 41 37" fill="none" xmlns="http://www.w3.org/2000/svg">
<path fill-rule="evenodd" clip-rule="evenodd" d="M27.4428 9.53125H37.1562V32.5938H3.84375V9.53125H13.5572L15.4791 4.40625H25.5289L27.4428 9.53125ZM25.9693 0.5625H15.4791C13.8775 0.5625 12.4441 1.55547 11.8836 3.05293L10.8906 5.6875H3.84375C1.72168 5.6875 0 7.40918 0 9.53125V32.5938C0 34.7158 1.72168 36.4375 3.84375 36.4375H37.1562C39.2783 36.4375 41 34.7158 41 32.5938V9.53125C41 7.40918 39.2783 5.6875 37.1562 5.6875H30.1094L28.9643 2.64453C28.4998 1.3873 27.3066 0.5625 25.9693 0.5625ZM20.5 30.6719C15.1988 30.6719 10.8906 26.3637 10.8906 21.0625C10.8906 15.7613 15.1988 11.4531 20.5 11.4531C25.8012 11.4531 30.1094 15.7613 30.1094 21.0625C30.1094 26.3637 25.8012 30.6719 20.5 30.6719ZM20.5 15.2969C17.3209 15.2969 14.7344 17.8834 14.7344 21.0625C14.7344 24.2416 17.3209 26.8281 20.5 26.8281C23.6791 26.8281 26.2656 24.2416 26.2656 21.0625C26.2656 17.8834 23.6791 15.2969 20.5 15.2969Z" fill="white"/>
</svg>