<?xml version="1.0" encoding="iso-8859-1"?>
<!-- Generator: Adobe Illustrator 19.0.0, SVG Export Plug-In . SVG Version: 6.00 Build 0)  -->
<svg version="1.1" id="Layer_1" xmlns="http://www.w3.org/2000/svg" xmlns:xlink="http://www.w3.org/1999/xlink" x="0px" y="0px"
	 viewBox="0 0 512 512" style="enable-background:new 0 0 512 512;" xml:space="preserve">
<path style="fill:#FF994D;" d="M124.022,136.992v-16.207c0-2.873-2.351-5.224-5.224-5.224H63.822c-2.873,0-5.224,2.351-5.224,5.224
	v16.207H124.022z"/>
<g>
	<path style="fill:#543B93;" d="M487.564,136.992v-16.207c0-2.873-2.351-5.224-5.224-5.224h-54.976
		c-2.873,0-5.224,2.351-5.224,5.224v16.207H487.564z"/>
	<path style="fill:#543B93;" d="M180.364,136.992v-16.207c0-2.873-2.351-5.224-5.225-5.224H151.51c-2.873,0-5.224,2.351-5.224,5.224
		v16.207H180.364z"/>
</g>
<path style="fill:#757575;" d="M363.162,136.992V89.201c0-2.873-2.351-5.224-5.224-5.224H210.463c-2.873,0-5.224,2.351-5.224,5.224
	v47.792H363.162z"/>
<path style="fill:#FFD655;" d="M335.757,108.081c0,2.873-2.351,5.224-5.224,5.224h-92.664c-2.873,0-5.224-2.351-5.224-5.224v-18.88
	c0-2.873,2.351-5.224,5.224-5.224h92.664c2.873,0,5.224,2.351,5.224,5.224V108.081z"/>
<g style="opacity:0.1;">
	<path d="M255.287,108.081v-18.88c0-2.873,2.351-5.224,5.224-5.224h-22.644c-2.873,0-5.224,2.351-5.224,5.224v18.879
		c0,2.873,2.351,5.224,5.224,5.224h22.644C257.638,113.306,255.287,110.955,255.287,108.081z"/>
</g>
<path style="fill:#B59472;" d="M498.939,216.293H387.301c12.558,19.396,19.853,42.516,19.853,67.343
	c0,68.529-55.553,124.082-124.082,124.082s-124.082-55.553-124.082-124.082c0-24.827,7.295-47.947,19.853-67.343H13.061
	c-2.873,0-5.224-2.351-5.224-5.225v201.28c0,8.62,7.053,15.673,15.673,15.673h464.98c8.62,0,15.673-7.053,15.673-15.673v-201.28
	C504.163,213.942,501.812,216.293,498.939,216.293z"/>
<path style="opacity:0.1;enable-background:new    ;" d="M42.841,412.348V221.595h-29.78c-2.873,0-5.224-2.351-5.224-5.224v195.978
	c0,8.62,7.053,15.673,15.673,15.673h35.004C49.894,428.022,42.841,420.968,42.841,412.348z"/>
<path style="fill:#E5E5E5;" d="M498.939,136.992H13.061c-2.873,0-5.224,2.351-5.224,5.224v74.153c0,2.873,2.351,5.224,5.224,5.224
	h162.533c21.455-37.088,61.551-62.041,107.478-62.041s86.023,24.953,107.478,62.041h108.388c2.873,0,5.224-2.351,5.224-5.224
	v-74.153C504.163,139.343,501.812,136.992,498.939,136.992z"/>
<g style="opacity:0.1;">
	<path d="M44.931,216.37v-74.153c0-2.873,2.351-5.224,5.224-5.224H13.061c-2.873,0-5.224,2.351-5.224,5.224v74.153
		c0,2.873,2.351,5.224,5.224,5.224h37.094C47.282,221.595,44.931,219.244,44.931,216.37z"/>
</g>
<circle style="fill:#8C8C8C;" cx="283.073" cy="283.637" r="124.082"/>
<g style="opacity:0.1;">
	<path d="M181.812,283.635c0-64.681,49.493-117.792,112.671-123.554c-3.758-0.343-7.563-0.528-11.41-0.528
		c-68.529,0-124.082,55.552-124.082,124.082c0,68.529,55.553,124.082,124.082,124.082c3.848,0,7.652-0.185,11.41-0.528
		C231.305,401.429,181.812,348.317,181.812,283.635z"/>
</g>
<path style="fill:#515151;" d="M367.219,283.635c0,46.475-37.673,84.146-84.147,84.146s-84.148-37.672-84.148-84.146
	c0-46.475,37.674-84.149,84.148-84.149C329.546,199.487,367.219,237.16,367.219,283.635z"/>
<path style="fill:#8C8C8C;" d="M244.065,312.334c-2.298,0-4.419-1.232-5.557-3.227c-4.371-7.653-6.681-16.406-6.681-25.312
	c0-9.666,2.721-19.103,7.868-27.292c1.171-1.862,3.217-2.993,5.417-2.993h75.917c2.201,0,4.247,1.131,5.418,2.993
	c5.147,8.19,7.868,17.626,7.868,27.292c0,8.905-2.31,17.659-6.681,25.312c-1.138,1.995-3.259,3.227-5.557,3.227H244.065z"/>
<g style="opacity:0.1;">
	<path d="M266.772,309.107c-4.371-7.653-6.681-16.406-6.681-25.312c0-9.666,2.721-19.103,7.868-27.292
		c1.171-1.862,3.217-2.993,5.418-2.993h-28.262c-2.201,0-4.246,1.131-5.417,2.993c-5.147,8.189-7.868,17.625-7.868,27.292
		c0,8.905,2.31,17.659,6.681,25.312c1.138,1.995,3.259,3.227,5.557,3.227h28.262C270.031,312.334,267.91,311.102,266.772,309.107z"
		/>
</g>
<path style="fill:#D1D3D4;" d="M470.323,388.956c0,2.873-2.351,5.224-5.224,5.224h-35.8c-2.873,0-5.224-2.351-5.224-5.224v-35.8
	c0-2.873,2.351-5.224,5.224-5.224h35.8c2.873,0,5.224,2.351,5.224,5.224V388.956z"/>
<g style="opacity:0.1;">
	<path d="M446.943,388.956v-35.8c0-2.873,2.351-5.224,5.224-5.224h-22.869c-2.873,0-5.224,2.351-5.224,5.224v35.8
		c0,2.873,2.351,5.224,5.224,5.224h22.869C449.294,394.18,446.943,391.829,446.943,388.956z"/>
</g>
<circle style="fill:#FFD655;" cx="142.639" cy="174.779" r="15.228"/>
<path d="M465.099,402.017c7.202,0,13.061-5.859,13.061-13.061v-35.8c0-7.202-5.859-13.061-13.061-13.061h-35.8
	c-7.203,0-13.061,5.859-13.061,13.061v35.8c0,7.202,5.859,13.061,13.061,13.061H465.099z M431.911,355.768h30.576v30.576h-30.576
	V355.768z"/>
<path d="M498.939,129.156h-3.538v-8.371c0-7.202-5.859-13.061-13.061-13.061h-54.976c-7.202,0-13.061,5.859-13.061,13.061v8.371
	h-43.304V89.201c0-7.202-5.859-13.061-13.061-13.061H210.463c-7.202,0-13.061,5.859-13.061,13.061v39.955H188.2v-8.371
	c0-7.202-5.859-13.061-13.061-13.061H151.51c-7.202,0-13.061,5.859-13.061,13.061v8.371h-6.59v-8.371
	c0-7.202-5.859-13.061-13.061-13.061H63.822c-7.202,0-13.061,5.859-13.061,13.061v8.371h-37.7C5.859,129.156,0,135.014,0,142.217
	v270.13c0,12.963,10.546,23.51,23.51,23.51h76.8c4.328,0,7.837-3.508,7.837-7.837c0-4.329-3.509-7.837-7.837-7.837h-76.8
	c-4.322,0-7.837-3.515-7.837-7.837v-78.503h23.195c4.328,0,7.837-3.508,7.837-7.837s-3.509-7.837-7.837-7.837H15.673v-18.314h23.195
	c4.328,0,7.837-3.508,7.837-7.837c0-4.329-3.509-7.837-7.837-7.837H15.673v-18.314h23.195c4.328,0,7.837-3.508,7.837-7.837
	c0-4.329-3.509-7.837-7.837-7.837H15.673v-20.763h64.783c4.328,0,7.837-3.508,7.837-7.837c0-4.329-3.509-7.837-7.837-7.837H15.673
	V144.83h480.653v68.929H394.968c-4.048-6.474-8.671-12.631-13.853-18.384c-2.896-3.216-7.851-3.475-11.068-0.578
	c-3.216,2.896-3.474,7.852-0.578,11.068c19.247,21.366,29.846,48.986,29.846,77.772c0,64.098-52.148,116.245-116.245,116.245
	s-116.245-52.147-116.245-116.245s52.148-116.245,116.245-116.245c21.929,0,43.283,6.135,61.753,17.74
	c3.664,2.303,8.502,1.196,10.805-2.466c2.303-3.665,1.199-8.502-2.466-10.805c-20.971-13.176-45.21-20.141-70.092-20.141
	c-47.094,0-88.494,24.81-111.84,62.041h-53.159c-4.328,0-7.837,3.508-7.837,7.837c0,4.329,3.509,7.837,7.837,7.837h44.736
	c-7.487,16.544-11.656,34.895-11.656,54.204c0,72.74,59.179,131.918,131.918,131.918s131.918-59.179,131.918-131.918
	c0-18.882-4.027-37.32-11.639-54.204h92.975V412.35c0,4.322-3.515,7.837-7.837,7.837H135.837c-4.328,0-7.837,3.508-7.837,7.837
	s3.509,7.837,7.837,7.837H488.49c12.964,0,23.51-10.547,23.51-23.51V142.217C512,135.015,506.141,129.156,498.939,129.156z
	 M116.185,129.156H66.435v-5.758h49.752v5.758H116.185z M172.527,129.156h-18.405v-5.758h18.405V129.156z M355.325,129.156H213.076
	V91.813h11.731v16.267c0,7.202,5.859,13.061,13.061,13.061h46.344c4.328,0,7.837-3.508,7.837-7.837s-3.509-7.837-7.837-7.837
	h-43.731V91.813h87.439v13.655h-8.182c-4.328,0-7.837,3.508-7.837,7.837s3.509,7.837,7.837,7.837h10.794
	c7.202,0,13.061-5.859,13.061-13.061V91.813h11.731L355.325,129.156L355.325,129.156z M479.727,129.156h-49.752v-5.758h49.752
	V129.156z"/>
<path d="M283.072,191.65c-50.72,0-91.984,41.264-91.984,91.986c0,50.719,41.264,91.982,91.984,91.982
	c50.719,0,91.983-41.263,91.983-91.982C375.056,232.914,333.793,191.65,283.072,191.65z M283.072,359.944
	c-42.078,0-76.311-34.232-76.311-76.309c0-42.078,34.233-76.312,76.311-76.312s76.31,34.234,76.31,76.312
	S325.15,359.944,283.072,359.944z"/>
<path d="M321.031,245.674h-75.917c-4.925,0-9.43,2.489-12.052,6.659c-5.934,9.44-9.071,20.319-9.071,31.462
	c0,10.266,2.667,20.362,7.71,29.194c2.528,4.428,7.264,7.18,12.363,7.18h33.878c4.328,0,7.837-3.508,7.837-7.837
	s-3.509-7.837-7.837-7.837h-33.033c-3.434-6.297-5.245-13.435-5.245-20.702c0-7.925,2.16-15.669,6.252-22.448h74.313
	c4.092,6.78,6.252,14.524,6.252,22.448c0,7.264-1.811,14.402-5.245,20.702h-10.9c-4.328,0-7.837,3.508-7.837,7.837
	s3.509,7.837,7.837,7.837h11.745c5.099,0,9.837-2.751,12.362-7.176c5.046-8.836,7.712-18.931,7.712-29.198
	c0-11.142-3.136-22.02-9.071-31.463C330.461,248.163,325.956,245.674,321.031,245.674z"/>
<path d="M165.7,174.782c0-12.717-10.347-23.064-23.065-23.064c-12.718,0-23.065,10.347-23.065,23.064
	c0,12.718,10.347,23.065,23.065,23.065C155.352,197.847,165.7,187.5,165.7,174.782z M135.243,174.782
	c0-4.075,3.315-7.391,7.392-7.391c4.075,0,7.392,3.315,7.392,7.391c0,4.075-3.315,7.392-7.392,7.392
	S135.243,178.857,135.243,174.782z"/>
<path d="M472.294,173.452c4.328,0,7.837-3.508,7.837-7.837c0-4.329-3.509-7.837-7.837-7.837h-48.22
	c-4.328,0-7.837,3.508-7.837,7.837c0,4.329,3.509,7.837,7.837,7.837H472.294z"/>
<g>
</g>
<g>
</g>
<g>
</g>
<g>
</g>
<g>
</g>
<g>
</g>
<g>
</g>
<g>
</g>
<g>
</g>
<g>
</g>
<g>
</g>
<g>
</g>
<g>
</g>
<g>
</g>
<g>
</g>
</svg>
