<svg width="99" height="84" viewBox="0 0 99 84" fill="none" xmlns="http://www.w3.org/2000/svg">
<rect width="99" height="84" rx="8" fill="#5769F2" fill-opacity="0.6"/>
<path fill-rule="evenodd" clip-rule="evenodd" d="M56.4428 31.5312H66.1562V54.5938H32.8438V31.5312H42.5572L44.4791 26.4062H54.5289L56.4428 31.5312ZM54.9693 22.5625H44.4791C42.8775 22.5625 41.4441 23.5555 40.8836 25.0529L39.8906 27.6875H32.8438C30.7217 27.6875 29 29.4092 29 31.5312V54.5938C29 56.7158 30.7217 58.4375 32.8438 58.4375H66.1562C68.2783 58.4375 70 56.7158 70 54.5938V31.5312C70 29.4092 68.2783 27.6875 66.1562 27.6875H59.1094L57.9643 24.6445C57.4998 23.3873 56.3066 22.5625 54.9693 22.5625ZM49.5 52.6719C44.1988 52.6719 39.8906 48.3637 39.8906 43.0625C39.8906 37.7613 44.1988 33.4531 49.5 33.4531C54.8012 33.4531 59.1094 37.7613 59.1094 43.0625C59.1094 48.3637 54.8012 52.6719 49.5 52.6719ZM49.5 37.2969C46.3209 37.2969 43.7344 39.8834 43.7344 43.0625C43.7344 46.2416 46.3209 48.8281 49.5 48.8281C52.6791 48.8281 55.2656 46.2416 55.2656 43.0625C55.2656 39.8834 52.6791 37.2969 49.5 37.2969Z" fill="white"/>
<path d="M87.9741 53.0259C87.9741 53.0259 87.9741 51.757 87.9741 66.9912C87.9741 71.4095 84.4573 75 80.0391 75C76.8216 75 72.3131 75 66 75" stroke="white" stroke-width="4"/>
<path d="M11.0259 30.9741C11.0259 30.9741 11.0259 32.243 11.0259 17.0088C11.0259 12.5905 14.5427 9 18.9609 9C22.1784 9 26.6869 9 33 9" stroke="white" stroke-width="4"/>
<path d="M11.0282 53.0259C11.0282 53.0259 11.0282 51.757 11.0282 66.9912C11.0282 71.4095 14.5467 75 18.965 75C22.5127 75 27.6287 75 35 75" stroke="white" stroke-width="4"/>
<path d="M87.9718 30.9741C87.9718 30.9741 87.9718 32.243 87.9718 17.0088C87.9718 12.5905 84.4533 9 80.035 9C76.4873 9 71.3713 9 64 9" stroke="white" stroke-width="4"/>
</svg>
