<?xml version="1.0" encoding="UTF-8" standalone="no"?>
<svg
   xmlns:dc="http://purl.org/dc/elements/1.1/"
   xmlns:cc="http://creativecommons.org/ns#"
   xmlns:rdf="http://www.w3.org/1999/02/22-rdf-syntax-ns#"
   xmlns:svg="http://www.w3.org/2000/svg"
   xmlns="http://www.w3.org/2000/svg"
   id="svg8"
   version="1.1"
   viewBox="0 0 43.012234 38.119637"
   height="38.119637mm"
   width="43.012234mm">
  <defs
     id="defs2" />
  <metadata
     id="metadata5">
    <rdf:RDF>
      <cc:Work
         rdf:about="">
        <dc:format>image/svg+xml</dc:format>
        <dc:type
           rdf:resource="http://purl.org/dc/dcmitype/StillImage" />
        <dc:title></dc:title>
      </cc:Work>
    </rdf:RDF>
  </metadata>
  <g
     transform="translate(-52.720701,-108.9956)"
     id="layer1">
    <path
       id="path47"
       d="m 82.865423,147.01624 c -0.72818,-0.16096 -1.57568,-0.54638 -2.48717,-1.13108 l -0.69341,-0.4448 -0.44238,0.1973 c -0.53316,0.2378 -1.45302,0.26435 -1.93586,0.0559 -0.4525,-0.19536 -0.9865,-0.71391 -1.23829,-1.20246 -0.17682,-0.34307 -0.22073,-0.54708 -0.21984,-1.02137 6.8e-4,-0.34148 0.0557,-0.71844 0.12988,-0.88943 l 0.12877,-0.29677 -0.92944,-1.0579 c -0.51119,-0.58184 -0.95372,-1.0579 -0.98339,-1.0579 -0.0297,0 -0.37711,0.36128 -0.77208,0.80285 -5.08286,5.68249 -9.33416,7.46976 -10.77806,4.53115 -0.3657,-0.74426 -0.49566,-1.47857 -0.49429,-2.79284 0.002,-2.09254 0.41481,-4.2517 1.38099,-7.22626 0.18658,-0.57444 0.32664,-1.05585 0.31124,-1.06978 -0.0154,-0.0139 -0.63284,-0.14685 -1.37209,-0.29536 -1.51644,-0.30464 -3.24331,-0.77559 -4.49792,-1.22667 -1.88697,-0.67844 -3.835604,-1.81652 -4.516104,-2.6376 -1.01086,-1.21969 -0.97788,-2.57153 0.0894,-3.6651 l 0.36269,-0.37161 v -0.77139 c 0,-0.69608 0.0244,-0.81546 0.2501,-1.22289 0.465414,-0.84021 1.124184,-1.23177 2.078234,-1.23526 0.7347,-0.003 1.22787,0.19053 1.68187,0.65894 l 0.27753,0.28634 0.65014,-0.21115 c 0.87526,-0.28425 2.97239,-0.81186 4.14681,-1.04327 0.61276,-0.12074 0.94353,-0.22278 0.9201,-0.28383 -0.29861,-0.77817 -1.04792,-3.17499 -1.27581,-4.08091 -0.55877,-2.22135 -0.67365,-3.03921 -0.67634,-4.81536 -0.002,-1.52612 0.009,-1.64342 0.22565,-2.286 0.28632,-0.85026 0.72714,-1.44295 1.28727,-1.73074 0.36042,-0.18518 0.5323,-0.21659 1.18533,-0.21659 1.13845,0 2.22329,0.42997 3.7933,1.50347 1.55364,1.0623 3.8335,3.22832 5.41313,5.14286 l 0.31436,0.381 0.27816,-0.33795 c 1.24604,-1.51387 3.36655,-3.64444 4.61541,-4.63732 2.29417,-1.82392 4.25213,-2.60779 5.56237,-2.22689 1.30765,0.38014 1.99133,1.78589 1.99458,4.10116 l 0.001,1.04765 0.38501,0.3389 c 0.92934,0.81804 1.11843,2.13567 0.45109,3.14318 -0.29041,0.43844 -0.89117,0.8684 -1.38828,0.99357 l -0.34194,0.0861 -0.28839,0.94714 c -0.15861,0.52092 -0.43394,1.34374 -0.61185,1.82849 -0.17791,0.48475 -0.31368,0.89058 -0.30172,0.90185 0.012,0.0113 0.52987,0.12085 1.15091,0.24354 4.28091,0.84566 7.51356,2.15169 9.02429,3.64592 0.79806,0.78933 1.02255,1.24473 1.02255,2.07433 0,0.53534 -0.0392,0.71237 -0.2498,1.12799 -0.92821,1.83192 -4.44614,3.51798 -9.50308,4.5546 -0.73615,0.1509 -1.3517,0.28397 -1.36789,0.29571 -0.0162,0.0117 0.0468,0.22516 0.14002,0.47426 0.56896,1.52067 1.23485,4.0986 1.50439,5.8241 0.19556,1.25185 0.1937,3.24937 -0.004,4.02167 -0.29071,1.1372 -0.71848,1.76643 -1.44124,2.12005 -0.56915,0.27846 -1.17465,0.32713 -1.94666,0.15647 z m 1.52309,-0.45619 c 0.27775,0 0.71623,-0.395 0.90023,-0.81096 0.0854,-0.19299 0.19798,-0.63841 0.25024,-0.98982 0.23763,-1.59773 -0.55422,-5.00508 -2.05657,-8.84944 -0.40861,-1.04557 -0.53301,-1.28638 -0.64679,-1.25203 -0.19543,0.059 -3.09123,0.36289 -4.1202,0.43238 l -0.84667,0.0572 -0.46542,0.68985 c -0.25598,0.37941 -0.85215,1.20872 -1.32482,1.84289 l -0.8594,1.15305 0.92932,1.17528 c 1.01791,1.28735 0.90919,1.22191 1.81201,1.09063 1.63909,-0.23833 3.07979,1.49756 2.53993,3.06035 l -0.14197,0.41098 0.36384,0.32198 c 0.49295,0.43623 1.64447,1.20239 2.12985,1.4171 0.43603,0.19288 1.04935,0.33474 1.22542,0.28344 0.062,-0.0181 0.20197,-0.0329 0.311,-0.0329 z m -18.5337,-0.54639 c 1.54903,-0.76557 3.62864,-2.6784 5.92035,-5.44555 0.47324,-0.57142 0.9768,-1.20097 1.11902,-1.39901 l 0.25858,-0.36007 -0.63615,-0.84465 c -0.34988,-0.46456 -0.94229,-1.28939 -1.31646,-1.83294 l -0.68031,-0.98829 -0.72821,-0.0542 c -1.06851,-0.0795 -4.09849,-0.38396 -4.21547,-0.42353 -0.19898,-0.0673 -1.51456,3.60848 -2.05546,5.74302 -0.41207,1.62613 -0.53899,2.57859 -0.49895,3.74424 0.0275,0.80183 0.0632,0.98985 0.26641,1.40494 0.44771,0.91455 1.32393,1.07024 2.56665,0.45605 z m 9.13019,-9.69827 0.73312,-1.05833 -1.45558,-0.0232 c -0.80057,-0.0128 -1.47593,-0.003 -1.5008,0.022 -0.0249,0.0249 0.15825,0.34012 0.40694,0.70055 0.69585,1.00847 1.03512,1.47004 1.06027,1.44247 0.0126,-0.0138 0.35283,-0.5014 0.75605,-1.08348 z m 2.59543,-3.99229 c 0.88396,-1.43871 2.27802,-3.92724 2.27785,-4.06618 -1.6e-4,-0.13812 -0.86541,-1.72054 -1.8713,-3.42234 l -0.75567,-1.27848 -0.82428,-0.0546 c -0.98823,-0.0654 -3.70683,-0.0541 -4.58771,0.0191 l -0.63077,0.0524 -0.53468,0.889 c -0.29407,0.48895 -0.8997,1.54472 -1.34584,2.34616 l -0.81117,1.45717 0.6081,1.08283 c 0.33445,0.59556 1.01165,1.75963 1.50487,2.58682 l 0.89678,1.50399 2.70781,-0.0223 2.70781,-0.0223 z m -4.02968,-1.67488 c -0.39741,-0.0967 -0.73509,-0.30234 -1.07532,-0.65469 -1.48627,-1.53918 -0.42792,-4.03344 1.71032,-4.03079 0.9594,0.001 1.68145,0.44912 2.11161,1.30995 0.47983,0.96021 0.30855,1.97692 -0.46302,2.74848 -0.61136,0.61137 -1.42749,0.83547 -2.28359,0.62705 z m -4.28978,2.55276 c -0.0335,-0.0789 -1.37859,-2.40533 -1.59972,-2.76691 l -0.1535,-0.25098 -0.47688,1.01298 c -0.63555,1.35006 -0.83393,1.8154 -0.79185,1.85748 0.10895,0.10895 3.06693,0.25326 3.02195,0.14743 z m 12.39661,-0.0758 c 0.33137,-0.0298 0.57102,-0.0908 0.57035,-0.14512 -5.9e-4,-0.0515 -0.29831,-0.70315 -0.66152,-1.44807 l -0.66036,-1.35439 -0.24099,0.42306 c -0.22885,0.40175 -1.35719,2.31527 -1.51669,2.57212 -0.0641,0.1033 0.071,0.11235 0.93133,0.0623 0.55351,-0.0322 1.26356,-0.0816 1.57788,-0.10994 z m -17.12383,-0.37541 c 0,-0.11952 0.89378,-2.18732 1.4917,-3.4511 0.2506,-0.52968 0.45563,-0.99087 0.45563,-1.02485 0,-0.034 -0.27908,-0.64837 -0.62019,-1.36528 -0.34111,-0.71692 -0.76958,-1.65913 -0.95216,-2.0938 l -0.33197,-0.79032 -0.46601,0.0556 c -1.4311,0.17087 -5.28328,0.89538 -5.40433,1.01644 -0.0207,0.0207 -0.0499,0.18165 -0.0649,0.35773 -0.0609,0.71428 -0.22359,1.06985 -0.71493,1.56288 -0.38227,0.38359 -0.57863,0.50967 -0.97177,0.62395 -0.821,0.23868 -1.68254,0.0374 -2.35065,-0.54923 l -0.311314,-0.27333 -0.24922,0.17746 c -0.36667,0.2611 -0.65085,0.62834 -0.81128,1.04843 -0.21349,0.559 -0.0724,0.97555 0.53452,1.57854 1.265834,1.25759 4.368174,2.2754 9.412204,3.08796 0.91355,0.14716 1.35467,0.15982 1.35467,0.0389 z m 22.00115,-0.25182 c 4.85553,-0.81848 7.92842,-2.05304 8.65497,-3.47721 0.96844,-1.8983 -2.8961,-3.77423 -9.91279,-4.81188 -1.42285,-0.21042 -1.41537,-0.21052 -1.48711,0.0204 -0.0789,0.25408 -0.66043,1.54815 -1.29736,2.88718 -0.28464,0.59841 -0.51753,1.12327 -0.51753,1.16636 0,0.0431 0.28389,0.68201 0.63087,1.41983 0.34697,0.73782 0.77039,1.67981 0.94093,2.09331 0.47803,1.15904 0.39748,1.07712 0.99288,1.00976 0.28382,-0.0321 1.18163,-0.17058 1.99514,-0.30771 z m -17.53972,-8.85202 c -0.0148,-0.0148 -0.61512,0.0209 -1.33402,0.0794 -0.86377,0.0703 -1.30095,0.1383 -1.28902,0.20054 0.01,0.0518 0.26768,0.61953 0.57278,1.26162 l 0.55473,1.16743 0.76123,-1.34103 c 0.41868,-0.73757 0.74911,-1.35316 0.7343,-1.36797 z m 13.09964,0.21333 c -0.0173,-0.0289 -0.42277,-0.078 -0.90108,-0.10917 -0.47831,-0.0312 -1.06968,-0.0778 -1.31416,-0.10364 -0.24447,-0.0258 -0.4445,-0.0202 -0.4445,0.0125 0,0.0327 0.24286,0.48393 0.53968,1.00277 0.29682,0.51883 0.62573,1.11366 0.73091,1.32184 l 0.19124,0.37851 0.61466,-1.22517 c 0.33807,-0.67385 0.60053,-1.24879 0.58325,-1.27764 z m -14.85174,-1.80906 c 0.58209,-0.068 1.48324,-0.14921 2.00257,-0.18046 l 0.94424,-0.0568 0.77042,-1.15772 c 0.42374,-0.63674 1.09295,-1.59131 1.48715,-2.12126 l 0.71672,-0.96354 -0.22568,-0.30068 c -1.24192,-1.65458 -2.91725,-3.56952 -4.21094,-4.81319 -3.05767,-2.93948 -5.14593,-3.52527 -5.79581,-1.62582 -0.18128,0.52983 -0.204,1.6702 -0.0545,2.73734 0.27174,1.94017 0.98035,4.34403 2.14389,7.27277 l 0.56273,1.41644 0.30046,-0.0417 c 0.16525,-0.023 0.7767,-0.0974 1.35879,-0.16536 z m 15.70594,-0.044 c 0.18083,-0.34969 1.10147,-2.6719 1.22758,-3.09642 l 0.10256,-0.34527 -0.46177,-0.46177 c -1.45025,-1.45025 -0.65054,-3.80342 1.39064,-4.09199 l 0.39662,-0.0561 0.0691,-0.48248 c 0.038,-0.26536 0.0683,-0.95873 0.0674,-1.54081 -0.002,-0.96021 -0.0221,-1.1022 -0.22189,-1.5315 -0.55707,-1.19685 -1.77693,-1.16541 -3.63086,0.0936 -1.60321,1.08872 -4.03809,3.62075 -6.14933,6.39469 l -0.51839,0.68111 0.67081,0.88523 c 0.36894,0.48687 1.0488,1.4417 1.5108,2.12184 l 0.84,1.23662 0.99859,0.0606 c 0.76382,0.0464 3.05204,0.29107 3.51526,0.3759 0.0337,0.006 0.12055,-0.1033 0.19294,-0.24329 z m -7.6978,-1.50953 c -0.88211,-1.29315 -1.04198,-1.50546 -1.09341,-1.45202 -0.0217,0.0226 -0.42627,0.61257 -0.89898,1.31107 l -0.85947,1.27 1.76103,0.0423 c 0.96856,0.0233 1.77481,0.0105 1.79165,-0.0284 0.0169,-0.0389 -0.29852,-0.55324 -0.70082,-1.143 z"
       style="fill:#99a4f4;stroke-width:0.08466666" />
  </g>
</svg>
